<mxfile host="app.diagrams.net" agent="Mozilla/5.0 (X11; Linux x86_64) AppleWebKit/537.36 (KHTML, like Gecko) Chrome/129.0.0.0 Safari/537.36" version="24.8.3">
  <diagram name="Página-1" id="Jg6G9am9Oah_aFUclaVX">
    <mxGraphModel dx="819" dy="429" grid="1" gridSize="10" guides="1" tooltips="1" connect="1" arrows="1" fold="1" page="1" pageScale="1" pageWidth="827" pageHeight="1169" math="0" shadow="0">
      <root>
        <mxCell id="0" />
        <mxCell id="1" parent="0" />
        <mxCell id="ouleEc-4slRpzxf-Wm3e-22" value="" style="rounded=0;whiteSpace=wrap;html=1;" vertex="1" parent="1">
          <mxGeometry x="270" y="40" width="380" height="520" as="geometry" />
        </mxCell>
        <mxCell id="ouleEc-4slRpzxf-Wm3e-5" style="edgeStyle=orthogonalEdgeStyle;rounded=0;orthogonalLoop=1;jettySize=auto;html=1;entryX=0.25;entryY=1;entryDx=0;entryDy=0;exitX=0.25;exitY=0;exitDx=0;exitDy=0;" edge="1" parent="1" source="ouleEc-4slRpzxf-Wm3e-1" target="ouleEc-4slRpzxf-Wm3e-4">
          <mxGeometry relative="1" as="geometry" />
        </mxCell>
        <mxCell id="ouleEc-4slRpzxf-Wm3e-6" value="Telemetria" style="edgeLabel;html=1;align=center;verticalAlign=middle;resizable=0;points=[];" vertex="1" connectable="0" parent="ouleEc-4slRpzxf-Wm3e-5">
          <mxGeometry x="-0.0702" y="1" relative="1" as="geometry">
            <mxPoint x="1" y="12" as="offset" />
          </mxGeometry>
        </mxCell>
        <mxCell id="ouleEc-4slRpzxf-Wm3e-17" style="edgeStyle=orthogonalEdgeStyle;rounded=0;orthogonalLoop=1;jettySize=auto;html=1;" edge="1" parent="1" source="ouleEc-4slRpzxf-Wm3e-1" target="ouleEc-4slRpzxf-Wm3e-16">
          <mxGeometry relative="1" as="geometry" />
        </mxCell>
        <mxCell id="ouleEc-4slRpzxf-Wm3e-19" value="Streaming&lt;div&gt;video&lt;/div&gt;" style="edgeLabel;html=1;align=center;verticalAlign=middle;resizable=0;points=[];" vertex="1" connectable="0" parent="ouleEc-4slRpzxf-Wm3e-17">
          <mxGeometry x="-0.1987" relative="1" as="geometry">
            <mxPoint x="-38" as="offset" />
          </mxGeometry>
        </mxCell>
        <mxCell id="ouleEc-4slRpzxf-Wm3e-1" value="Carro" style="rounded=1;whiteSpace=wrap;html=1;" vertex="1" parent="1">
          <mxGeometry x="310" y="490" width="120" height="60" as="geometry" />
        </mxCell>
        <mxCell id="ouleEc-4slRpzxf-Wm3e-9" style="edgeStyle=orthogonalEdgeStyle;rounded=0;orthogonalLoop=1;jettySize=auto;html=1;startArrow=classic;startFill=1;" edge="1" parent="1" source="ouleEc-4slRpzxf-Wm3e-2" target="ouleEc-4slRpzxf-Wm3e-3">
          <mxGeometry relative="1" as="geometry" />
        </mxCell>
        <mxCell id="ouleEc-4slRpzxf-Wm3e-15" value="Auth&lt;div&gt;Dados&lt;/div&gt;" style="edgeLabel;html=1;align=center;verticalAlign=middle;resizable=0;points=[];" vertex="1" connectable="0" parent="ouleEc-4slRpzxf-Wm3e-9">
          <mxGeometry x="-0.08" y="2" relative="1" as="geometry">
            <mxPoint as="offset" />
          </mxGeometry>
        </mxCell>
        <mxCell id="ouleEc-4slRpzxf-Wm3e-10" style="edgeStyle=orthogonalEdgeStyle;rounded=0;orthogonalLoop=1;jettySize=auto;html=1;exitX=0.75;exitY=1;exitDx=0;exitDy=0;entryX=0.75;entryY=0;entryDx=0;entryDy=0;" edge="1" parent="1" source="ouleEc-4slRpzxf-Wm3e-2" target="ouleEc-4slRpzxf-Wm3e-4">
          <mxGeometry relative="1" as="geometry" />
        </mxCell>
        <mxCell id="ouleEc-4slRpzxf-Wm3e-11" value="Comandos" style="edgeLabel;html=1;align=center;verticalAlign=middle;resizable=0;points=[];" vertex="1" connectable="0" parent="ouleEc-4slRpzxf-Wm3e-10">
          <mxGeometry x="-0.2659" y="1" relative="1" as="geometry">
            <mxPoint y="-3" as="offset" />
          </mxGeometry>
        </mxCell>
        <mxCell id="ouleEc-4slRpzxf-Wm3e-2" value="Interface usuário&lt;div&gt;&lt;i&gt;Nextjs React&lt;/i&gt;&lt;/div&gt;" style="rounded=1;whiteSpace=wrap;html=1;" vertex="1" parent="1">
          <mxGeometry x="310" y="190" width="120" height="60" as="geometry" />
        </mxCell>
        <mxCell id="ouleEc-4slRpzxf-Wm3e-3" value="Firebase" style="rounded=1;whiteSpace=wrap;html=1;" vertex="1" parent="1">
          <mxGeometry x="310" y="50" width="120" height="60" as="geometry" />
        </mxCell>
        <mxCell id="ouleEc-4slRpzxf-Wm3e-7" style="edgeStyle=orthogonalEdgeStyle;rounded=0;orthogonalLoop=1;jettySize=auto;html=1;entryX=0.25;entryY=1;entryDx=0;entryDy=0;exitX=0.25;exitY=0;exitDx=0;exitDy=0;" edge="1" parent="1" source="ouleEc-4slRpzxf-Wm3e-4" target="ouleEc-4slRpzxf-Wm3e-2">
          <mxGeometry relative="1" as="geometry">
            <Array as="points" />
          </mxGeometry>
        </mxCell>
        <mxCell id="ouleEc-4slRpzxf-Wm3e-8" value="Telemetria" style="edgeLabel;html=1;align=center;verticalAlign=middle;resizable=0;points=[];" vertex="1" connectable="0" parent="ouleEc-4slRpzxf-Wm3e-7">
          <mxGeometry x="0.0562" y="-3" relative="1" as="geometry">
            <mxPoint y="18" as="offset" />
          </mxGeometry>
        </mxCell>
        <mxCell id="ouleEc-4slRpzxf-Wm3e-12" style="edgeStyle=orthogonalEdgeStyle;rounded=0;orthogonalLoop=1;jettySize=auto;html=1;exitX=0.75;exitY=1;exitDx=0;exitDy=0;entryX=0.75;entryY=0;entryDx=0;entryDy=0;" edge="1" parent="1" source="ouleEc-4slRpzxf-Wm3e-4" target="ouleEc-4slRpzxf-Wm3e-1">
          <mxGeometry relative="1" as="geometry" />
        </mxCell>
        <mxCell id="ouleEc-4slRpzxf-Wm3e-14" value="Comandos" style="edgeLabel;html=1;align=center;verticalAlign=middle;resizable=0;points=[];" vertex="1" connectable="0" parent="ouleEc-4slRpzxf-Wm3e-12">
          <mxGeometry x="-0.1822" y="1" relative="1" as="geometry">
            <mxPoint y="-7" as="offset" />
          </mxGeometry>
        </mxCell>
        <mxCell id="ouleEc-4slRpzxf-Wm3e-4" value="Broker - MQTT" style="rounded=1;whiteSpace=wrap;html=1;" vertex="1" parent="1">
          <mxGeometry x="310" y="340" width="120" height="60" as="geometry" />
        </mxCell>
        <mxCell id="ouleEc-4slRpzxf-Wm3e-18" style="edgeStyle=orthogonalEdgeStyle;rounded=0;orthogonalLoop=1;jettySize=auto;html=1;entryX=1;entryY=0.5;entryDx=0;entryDy=0;" edge="1" parent="1" source="ouleEc-4slRpzxf-Wm3e-16" target="ouleEc-4slRpzxf-Wm3e-2">
          <mxGeometry relative="1" as="geometry">
            <Array as="points">
              <mxPoint x="570" y="220" />
            </Array>
          </mxGeometry>
        </mxCell>
        <mxCell id="ouleEc-4slRpzxf-Wm3e-20" value="Streaming&lt;div&gt;video&lt;/div&gt;" style="edgeLabel;html=1;align=center;verticalAlign=middle;resizable=0;points=[];" vertex="1" connectable="0" parent="ouleEc-4slRpzxf-Wm3e-18">
          <mxGeometry x="0.3185" y="1" relative="1" as="geometry">
            <mxPoint x="-19" y="-1" as="offset" />
          </mxGeometry>
        </mxCell>
        <mxCell id="ouleEc-4slRpzxf-Wm3e-16" value="Servidor&amp;nbsp;WebRTC&lt;div&gt;&lt;span style=&quot;background-color: initial;&quot;&gt;&lt;i&gt;openVidu&lt;/i&gt;&lt;/span&gt;&lt;/div&gt;" style="rounded=1;whiteSpace=wrap;html=1;" vertex="1" parent="1">
          <mxGeometry x="520" y="340" width="120" height="60" as="geometry" />
        </mxCell>
      </root>
    </mxGraphModel>
  </diagram>
</mxfile>
